<svg xmlns="http://www.w3.org/2000/svg" xmlns:xlink="http://www.w3.org/1999/xlink" width="2000" zoomAndPan="magnify" viewBox="0 0 1500 1499.999933" height="2000" preserveAspectRatio="xMidYMid meet" version="1.0"><defs><g/><clipPath id="6a36cb5196"><path d="M 750 0 C 335.785156 0 0 335.785156 0 750 C 0 1164.214844 335.785156 1500 750 1500 C 1164.214844 1500 1500 1164.214844 1500 750 C 1500 335.785156 1164.214844 0 750 0 Z M 750 0 " clip-rule="nonzero"/></clipPath><clipPath id="903c383765"><path d="M 0 0 L 1500 0 L 1500 1500 L 0 1500 Z M 0 0 " clip-rule="nonzero"/></clipPath><clipPath id="405594efed"><path d="M 750 0 C 335.785156 0 0 335.785156 0 750 C 0 1164.214844 335.785156 1500 750 1500 C 1164.214844 1500 1500 1164.214844 1500 750 C 1500 335.785156 1164.214844 0 750 0 Z M 750 0 " clip-rule="nonzero"/></clipPath><clipPath id="d0c400fa1f"><rect x="0" width="1500" y="0" height="1500"/></clipPath><clipPath id="ba91220ddb"><rect x="0" width="920" y="0" height="1428"/></clipPath></defs><g clip-path="url(#6a36cb5196)"><g transform="matrix(1, 0, 0, 1, 0, 0.000000000000112861)"><g clip-path="url(#d0c400fa1f)"><g clip-path="url(#903c383765)"><g clip-path="url(#405594efed)"><rect x="-330" width="2160" fill="#c3cec1" height="2159.999904" y="-329.999985" fill-opacity="1"/></g></g></g></g></g><g transform="matrix(1, 0, 0, 1, 274, 72)"><g clip-path="url(#ba91220ddb)"><g fill="#222222" fill-opacity="1"><g transform="translate(1.45955, 1000.19001)"><g><path d="M 21.25 -423.796875 L 18.75 -443.796875 C 22.082031 -478.804688 42.289062 -513.394531 79.375 -547.5625 C 116.46875 -581.726562 163.347656 -614.226562 220.015625 -645.0625 C 276.691406 -675.90625 366.707031 -701.742188 490.0625 -722.578125 C 560.0625 -733.410156 618.601562 -738.828125 665.6875 -738.828125 C 712.78125 -738.828125 754.242188 -734.867188 790.078125 -726.953125 C 825.921875 -719.035156 855.507812 -703.410156 878.84375 -680.078125 C 902.1875 -656.742188 913.859375 -629.03125 913.859375 -596.9375 C 913.859375 -564.851562 900.3125 -534.640625 873.21875 -506.296875 C 846.132812 -477.960938 812.175781 -456.296875 771.34375 -441.296875 C 692.164062 -412.128906 616.320312 -395.878906 543.8125 -392.546875 C 579.644531 -370.878906 609.226562 -351.914062 632.5625 -335.65625 C 655.90625 -319.40625 680.910156 -297.945312 707.578125 -271.28125 C 734.242188 -244.613281 751.328125 -221.691406 758.828125 -202.515625 C 766.335938 -183.347656 770.09375 -166.265625 770.09375 -151.265625 C 770.09375 -102.097656 751.335938 -55.007812 713.828125 -10 C 688.828125 20.832031 654.03125 45.414062 609.4375 63.75 C 564.851562 82.09375 517.554688 91.265625 467.546875 91.265625 C 360.867188 91.265625 302.53125 53.757812 292.53125 -21.25 C 290.863281 -22.914062 290.03125 -25.414062 290.03125 -28.75 C 258.363281 22.082031 232.113281 47.5 211.28125 47.5 C 205.4375 47.5 196.054688 46.039062 183.140625 43.125 C 170.222656 40.207031 163.554688 37.082031 163.140625 33.75 C 162.722656 30.414062 162.515625 23.332031 162.515625 12.5 C 162.515625 1.664062 170.429688 -24.375 186.265625 -65.625 C 202.109375 -106.882812 220.03125 -147.515625 240.03125 -187.515625 C 279.195312 -262.523438 317.953125 -335.035156 356.296875 -405.046875 C 362.960938 -420.046875 366.296875 -431.296875 366.296875 -438.796875 C 366.296875 -446.296875 365.878906 -452.128906 365.046875 -456.296875 C 368.378906 -479.640625 388.585938 -510.269531 425.671875 -548.1875 C 462.753906 -586.101562 496.300781 -605.0625 526.3125 -605.0625 C 536.3125 -605.0625 549.644531 -601.3125 566.3125 -593.8125 C 582.976562 -586.3125 592.976562 -575.894531 596.3125 -562.5625 C 597.144531 -556.726562 597.351562 -553.1875 596.9375 -551.9375 C 596.519531 -550.6875 594.226562 -550.894531 590.0625 -552.5625 C 585.894531 -554.226562 583.394531 -555.0625 582.5625 -555.0625 C 555.894531 -555.0625 524.015625 -535.265625 486.921875 -495.671875 C 449.835938 -456.085938 414.210938 -407.546875 380.046875 -350.046875 C 309.203125 -233.359375 258.363281 -137.507812 227.53125 -62.5 C 220.863281 -45.832031 217.53125 -32.914062 217.53125 -23.75 C 217.53125 -11.25 222.945312 -5 233.78125 -5 C 244.613281 -5 259.195312 -16.457031 277.53125 -39.375 C 295.863281 -62.300781 308.78125 -73.554688 316.28125 -73.140625 C 323.78125 -72.722656 329.820312 -70.425781 334.40625 -66.25 C 338.988281 -62.082031 342.113281 -57.707031 343.78125 -53.125 C 345.445312 -48.539062 346.695312 -42.082031 347.53125 -33.75 C 348.375 -25.414062 349.210938 -20 350.046875 -17.5 C 363.378906 41.675781 405.460938 71.265625 476.296875 71.265625 C 477.960938 71.265625 479.628906 71.265625 481.296875 71.265625 C 538.804688 71.265625 587.984375 57.925781 628.828125 31.25 C 673.828125 1.25 696.328125 -36.039062 696.328125 -80.625 C 696.328125 -125.21875 675.492188 -172.101562 633.828125 -221.28125 C 620.484375 -236.28125 600.894531 -255.03125 575.0625 -277.53125 C 520.0625 -325.039062 491.726562 -355.460938 490.0625 -368.796875 C 488.394531 -382.128906 494.019531 -393.171875 506.9375 -401.921875 C 519.851562 -410.671875 531.726562 -415.046875 542.5625 -415.046875 C 583.394531 -415.046875 639.234375 -429.628906 710.078125 -458.796875 C 814.253906 -501.304688 870.09375 -548.394531 877.59375 -600.0625 C 877.59375 -603.394531 877.59375 -605.894531 877.59375 -607.5625 C 877.59375 -622.570312 870.925781 -636.742188 857.59375 -650.078125 C 835.09375 -674.242188 787.585938 -686.328125 715.078125 -686.328125 C 615.898438 -686.328125 500.472656 -668.410156 368.796875 -632.578125 C 288.785156 -610.898438 218.359375 -580.0625 157.515625 -540.0625 C 90.835938 -495.882812 57.5 -448.796875 57.5 -398.796875 C 57.5 -387.960938 60.832031 -377.335938 67.5 -366.921875 C 74.175781 -356.503906 81.890625 -349 90.640625 -344.40625 C 99.390625 -339.820312 110.847656 -334.820312 125.015625 -329.40625 C 139.179688 -323.988281 149.390625 -319.820312 155.640625 -316.90625 C 161.890625 -313.988281 163.972656 -310.445312 161.890625 -306.28125 C 159.804688 -302.113281 153.765625 -300.863281 143.765625 -302.53125 C 116.265625 -304.195312 88.757812 -315.65625 61.25 -336.90625 C 33.75 -358.164062 20 -382.960938 20 -411.296875 C 20 -415.460938 20.414062 -419.628906 21.25 -423.796875 Z M 21.25 -423.796875 "/></g></g></g></g></g></svg>